{
 "cells": [
  {
   "cell_type": "code",
   "execution_count": 4,
   "id": "d967a5cb",
   "metadata": {},
   "outputs": [
    {
     "name": "stdout",
     "output_type": "stream",
     "text": [
      "{'video_found': True, 'audio_found': True, 'metadata': {'major_brand': 'isom', 'minor_version': '512', 'compatible_brands': 'isomiso2avc1mp41', 'creation_time': '2025-03-23T12:38:54.000000Z', 'encoder': 'Blackmagic Design DaVinci Resolve'}, 'inputs': [{'streams': [{'input_number': 0, 'stream_number': 0, 'stream_type': 'video', 'language': None, 'default': True, 'size': [1920, 1080], 'bitrate': 8528, 'fps': 30.0, 'codec_name': 'h264', 'profile': '(High)', 'metadata': {'Metadata': '', 'creation_time': '2025-03-23T12:38:54.000000Z', 'handler_name': 'VideoHandler', 'vendor_id': '[0][0][0][0]', 'encoder': 'H.264', 'timecode': '01:00:00:00'}}, {'input_number': 0, 'stream_number': 1, 'stream_type': 'audio', 'language': None, 'default': True, 'fps': 48000, 'bitrate': 192, 'metadata': {'Metadata': '', 'creation_time': '2025-03-23T12:38:54.000000Z', 'handler_name': 'SoundHandler', 'vendor_id': '[0][0][0][0]'}}, {'input_number': 0, 'stream_number': 2, 'stream_type': 'data', 'language': 'eng', 'default': True, 'metadata': {'Metadata': '', 'creation_time': '2025-03-23T12:38:54.000000Z', 'handler_name': 'TimeCodeHandler', 'timecode': '01:00:00:00'}}], 'input_number': 0}], 'duration': 21.61, 'bitrate': 8721, 'start': 0.0, 'default_video_input_number': 0, 'default_video_stream_number': 0, 'video_codec_name': 'h264', 'video_profile': '(High)', 'video_size': [1920, 1080], 'video_bitrate': 8528, 'video_fps': 30.0, 'default_audio_input_number': 0, 'default_audio_stream_number': 1, 'audio_fps': 48000, 'audio_bitrate': 192, 'default_data_input_number': 0, 'default_data_stream_number': 2, 'video_duration': 21.61, 'video_n_frames': 648}\n",
      "/home/arnautov/projects/mgu_hack/venv/lib/python3.11/site-packages/imageio_ffmpeg/binaries/ffmpeg-linux-x86_64-v7.0.2 -i ../data/kostin.mp4 -loglevel error -f image2pipe -vf scale=1920:1080 -sws_flags bicubic -pix_fmt rgb24 -vcodec rawvideo -\n"
     ]
    },
    {
     "name": "stderr",
     "output_type": "stream",
     "text": [
      "ffmpeg version 4.4.2-0ubuntu0.22.04.1 Copyright (c) 2000-2021 the FFmpeg developers\n",
      "  built with gcc 11 (Ubuntu 11.2.0-19ubuntu1)\n",
      "  configuration: --prefix=/usr --extra-version=0ubuntu0.22.04.1 --toolchain=hardened --libdir=/usr/lib/x86_64-linux-gnu --incdir=/usr/include/x86_64-linux-gnu --arch=amd64 --enable-gpl --disable-stripping --enable-gnutls --enable-ladspa --enable-libaom --enable-libass --enable-libbluray --enable-libbs2b --enable-libcaca --enable-libcdio --enable-libcodec2 --enable-libdav1d --enable-libflite --enable-libfontconfig --enable-libfreetype --enable-libfribidi --enable-libgme --enable-libgsm --enable-libjack --enable-libmp3lame --enable-libmysofa --enable-libopenjpeg --enable-libopenmpt --enable-libopus --enable-libpulse --enable-librabbitmq --enable-librubberband --enable-libshine --enable-libsnappy --enable-libsoxr --enable-libspeex --enable-libsrt --enable-libssh --enable-libtheora --enable-libtwolame --enable-libvidstab --enable-libvorbis --enable-libvpx --enable-libwebp --enable-libx265 --enable-libxml2 --enable-libxvid --enable-libzimg --enable-libzmq --enable-libzvbi --enable-lv2 --enable-omx --enable-openal --enable-opencl --enable-opengl --enable-sdl2 --enable-pocketsphinx --enable-librsvg --enable-libmfx --enable-libdc1394 --enable-libdrm --enable-libiec61883 --enable-chromaprint --enable-frei0r --enable-libx264 --enable-shared\n",
      "  WARNING: library configuration mismatch\n",
      "  avcodec     configuration: --prefix=/usr --extra-version=0ubuntu0.22.04.1 --toolchain=hardened --libdir=/usr/lib/x86_64-linux-gnu --incdir=/usr/include/x86_64-linux-gnu --arch=amd64 --enable-gpl --disable-stripping --enable-gnutls --enable-ladspa --enable-libaom --enable-libass --enable-libbluray --enable-libbs2b --enable-libcaca --enable-libcdio --enable-libcodec2 --enable-libdav1d --enable-libflite --enable-libfontconfig --enable-libfreetype --enable-libfribidi --enable-libgme --enable-libgsm --enable-libjack --enable-libmp3lame --enable-libmysofa --enable-libopenjpeg --enable-libopenmpt --enable-libopus --enable-libpulse --enable-librabbitmq --enable-librubberband --enable-libshine --enable-libsnappy --enable-libsoxr --enable-libspeex --enable-libsrt --enable-libssh --enable-libtheora --enable-libtwolame --enable-libvidstab --enable-libvorbis --enable-libvpx --enable-libwebp --enable-libx265 --enable-libxml2 --enable-libxvid --enable-libzimg --enable-libzmq --enable-libzvbi --enable-lv2 --enable-omx --enable-openal --enable-opencl --enable-opengl --enable-sdl2 --enable-pocketsphinx --enable-librsvg --enable-libmfx --enable-libdc1394 --enable-libdrm --enable-libiec61883 --enable-chromaprint --enable-frei0r --enable-libx264 --enable-shared --enable-version3 --disable-doc --disable-programs --enable-libaribb24 --enable-libopencore_amrnb --enable-libopencore_amrwb --enable-libtesseract --enable-libvo_amrwbenc --enable-libsmbclient\n",
      "  libavutil      56. 70.100 / 56. 70.100\n",
      "  libavcodec     58.134.100 / 58.134.100\n",
      "  libavformat    58. 76.100 / 58. 76.100\n",
      "  libavdevice    58. 13.100 / 58. 13.100\n",
      "  libavfilter     7.110.100 /  7.110.100\n",
      "  libswscale      5.  9.100 /  5.  9.100\n",
      "  libswresample   3.  9.100 /  3.  9.100\n",
      "  libpostproc    55.  9.100 / 55.  9.100\n",
      "Input #0, mov,mp4,m4a,3gp,3g2,mj2, from '../data/subway.mp4':\n",
      "  Metadata:\n",
      "    major_brand     : dash\n",
      "    minor_version   : 0\n",
      "    compatible_brands: iso6avc1mp41\n",
      "    creation_time   : 2024-09-14T00:38:46.000000Z\n",
      "  Duration: 00:02:25.38, start: 0.000000, bitrate: 3474 kb/s\n",
      "  Stream #0:0(und): Video: h264 (Main) (avc1 / 0x31637661), yuv420p(tv, bt709, progressive), 720x1280 [SAR 1:1 DAR 9:16], 120 kb/s, 60 fps, 60 tbr, 15360 tbn, 120 tbc (default)\n",
      "    Metadata:\n",
      "      creation_time   : 2024-09-14T00:38:46.000000Z\n",
      "      handler_name    : ISO Media file produced by Google Inc.\n",
      "      vendor_id       : [0][0][0][0]\n",
      "Stream mapping:\n",
      "  Stream #0:0 -> #0:0 (h264 (native) -> h264 (libx264))\n",
      "Press [q] to stop, [?] for help\n",
      "[libx264 @ 0x559d198e6cc0] using SAR=1/1\n",
      "[libx264 @ 0x559d198e6cc0] using cpu capabilities: MMX2 SSE2Fast SSSE3 SSE4.2 AVX FMA3 BMI2 AVX2\n",
      "[libx264 @ 0x559d198e6cc0] profile High, level 3.2, 4:2:0, 8-bit\n",
      "[libx264 @ 0x559d198e6cc0] 264 - core 163 r3060 5db6aa6 - H.264/MPEG-4 AVC codec - Copyleft 2003-2021 - http://www.videolan.org/x264.html - options: cabac=1 ref=2 deblock=1:0:0 analyse=0x3:0x113 me=hex subme=6 psy=1 psy_rd=1.00:0.00 mixed_ref=1 me_range=16 chroma_me=1 trellis=1 8x8dct=1 cqm=0 deadzone=21,11 fast_pskip=1 chroma_qp_offset=-2 threads=18 lookahead_threads=3 sliced_threads=0 nr=0 decimate=1 interlaced=0 bluray_compat=0 constrained_intra=0 bframes=3 b_pyramid=2 b_adapt=1 b_bias=0 direct=1 weightb=1 open_gop=0 weightp=1 keyint=250 keyint_min=25 scenecut=40 intra_refresh=0 rc_lookahead=30 rc=crf mbtree=1 crf=23.0 qcomp=0.60 qpmin=0 qpmax=69 qpstep=4 ip_ratio=1.40 aq=1:1.00\n",
      "Output #0, mp4, to '/home/arnautov/projects/mgu_hack/data/tmp6v8upsz8.mp4':\n",
      "  Metadata:\n",
      "    major_brand     : dash\n",
      "    minor_version   : 0\n",
      "    compatible_brands: iso6avc1mp41\n",
      "    encoder         : Lavf58.76.100\n",
      "  Stream #0:0(und): Video: h264 (avc1 / 0x31637661), yuv420p(tv, bt709, progressive), 720x1280 [SAR 1:1 DAR 9:16], q=2-31, 60 fps, 15360 tbn (default)\n",
      "    Metadata:\n",
      "      creation_time   : 2024-09-14T00:38:46.000000Z\n",
      "      handler_name    : ISO Media file produced by Google Inc.\n",
      "      vendor_id       : [0][0][0][0]\n",
      "      encoder         : Lavc58.134.100 libx264\n",
      "    Side data:\n",
      "      cpb: bitrate max/min/avg: 0/0/0 buffer size: 0 vbv_delay: N/A\n",
      "frame= 1296 fps= 43 q=-1.0 Lsize=   12252kB time=00:00:21.55 bitrate=4657.5kbits/s speed=0.719x    \n",
      "video:12237kB audio:0kB subtitle:0kB other streams:0kB global headers:0kB muxing overhead: 0.122196%\n",
      "[libx264 @ 0x559d198e6cc0] frame I:6     Avg QP:24.16  size: 42356\n",
      "[libx264 @ 0x559d198e6cc0] frame P:574   Avg QP:27.16  size: 13613\n",
      "[libx264 @ 0x559d198e6cc0] frame B:716   Avg QP:29.05  size:  6232\n",
      "[libx264 @ 0x559d198e6cc0] consecutive B-frames:  7.4% 46.8% 30.1% 15.7%\n",
      "[libx264 @ 0x559d198e6cc0] mb I  I16..4: 19.7% 59.8% 20.5%\n",
      "[libx264 @ 0x559d198e6cc0] mb P  I16..4: 11.1% 14.9%  2.9%  P16..4: 34.4%  9.5%  2.5%  0.0%  0.0%    skip:24.7%\n",
      "[libx264 @ 0x559d198e6cc0] mb B  I16..4:  4.6%  5.0%  0.5%  B16..8: 30.6%  6.3%  0.2%  direct: 7.2%  skip:45.6%  L0:46.0% L1:50.3% BI: 3.7%\n",
      "[libx264 @ 0x559d198e6cc0] 8x8 transform intra:51.1% inter:63.7%\n",
      "[libx264 @ 0x559d198e6cc0] coded y,uvDC,uvAC intra: 27.5% 62.3% 19.1% inter: 7.7% 21.0% 1.1%\n",
      "[libx264 @ 0x559d198e6cc0] i16 v,h,dc,p: 47% 23% 14% 16%\n",
      "[libx264 @ 0x559d198e6cc0] i8 v,h,dc,ddl,ddr,vr,hd,vl,hu: 38% 16% 26%  3%  3%  5%  2%  4%  2%\n",
      "[libx264 @ 0x559d198e6cc0] i4 v,h,dc,ddl,ddr,vr,hd,vl,hu: 35% 18% 17%  4%  6%  7%  5%  5%  3%\n",
      "[libx264 @ 0x559d198e6cc0] i8c dc,h,v,p: 47% 15% 31%  7%\n",
      "[libx264 @ 0x559d198e6cc0] Weighted P-Frames: Y:0.0% UV:0.0%\n",
      "[libx264 @ 0x559d198e6cc0] ref P L0: 83.8% 16.2%\n",
      "[libx264 @ 0x559d198e6cc0] ref B L0: 83.4% 16.6%\n",
      "[libx264 @ 0x559d198e6cc0] ref B L1: 99.4%  0.6%\n",
      "[libx264 @ 0x559d198e6cc0] kb/s:4640.76\n",
      "ffmpeg version 4.4.2-0ubuntu0.22.04.1 Copyright (c) 2000-2021 the FFmpeg developers\n",
      "  built with gcc 11 (Ubuntu 11.2.0-19ubuntu1)\n",
      "  configuration: --prefix=/usr --extra-version=0ubuntu0.22.04.1 --toolchain=hardened --libdir=/usr/lib/x86_64-linux-gnu --incdir=/usr/include/x86_64-linux-gnu --arch=amd64 --enable-gpl --disable-stripping --enable-gnutls --enable-ladspa --enable-libaom --enable-libass --enable-libbluray --enable-libbs2b --enable-libcaca --enable-libcdio --enable-libcodec2 --enable-libdav1d --enable-libflite --enable-libfontconfig --enable-libfreetype --enable-libfribidi --enable-libgme --enable-libgsm --enable-libjack --enable-libmp3lame --enable-libmysofa --enable-libopenjpeg --enable-libopenmpt --enable-libopus --enable-libpulse --enable-librabbitmq --enable-librubberband --enable-libshine --enable-libsnappy --enable-libsoxr --enable-libspeex --enable-libsrt --enable-libssh --enable-libtheora --enable-libtwolame --enable-libvidstab --enable-libvorbis --enable-libvpx --enable-libwebp --enable-libx265 --enable-libxml2 --enable-libxvid --enable-libzimg --enable-libzmq --enable-libzvbi --enable-lv2 --enable-omx --enable-openal --enable-opencl --enable-opengl --enable-sdl2 --enable-pocketsphinx --enable-librsvg --enable-libmfx --enable-libdc1394 --enable-libdrm --enable-libiec61883 --enable-chromaprint --enable-frei0r --enable-libx264 --enable-shared\n",
      "  WARNING: library configuration mismatch\n",
      "  avcodec     configuration: --prefix=/usr --extra-version=0ubuntu0.22.04.1 --toolchain=hardened --libdir=/usr/lib/x86_64-linux-gnu --incdir=/usr/include/x86_64-linux-gnu --arch=amd64 --enable-gpl --disable-stripping --enable-gnutls --enable-ladspa --enable-libaom --enable-libass --enable-libbluray --enable-libbs2b --enable-libcaca --enable-libcdio --enable-libcodec2 --enable-libdav1d --enable-libflite --enable-libfontconfig --enable-libfreetype --enable-libfribidi --enable-libgme --enable-libgsm --enable-libjack --enable-libmp3lame --enable-libmysofa --enable-libopenjpeg --enable-libopenmpt --enable-libopus --enable-libpulse --enable-librabbitmq --enable-librubberband --enable-libshine --enable-libsnappy --enable-libsoxr --enable-libspeex --enable-libsrt --enable-libssh --enable-libtheora --enable-libtwolame --enable-libvidstab --enable-libvorbis --enable-libvpx --enable-libwebp --enable-libx265 --enable-libxml2 --enable-libxvid --enable-libzimg --enable-libzmq --enable-libzvbi --enable-lv2 --enable-omx --enable-openal --enable-opencl --enable-opengl --enable-sdl2 --enable-pocketsphinx --enable-librsvg --enable-libmfx --enable-libdc1394 --enable-libdrm --enable-libiec61883 --enable-chromaprint --enable-frei0r --enable-libx264 --enable-shared --enable-version3 --disable-doc --disable-programs --enable-libaribb24 --enable-libopencore_amrnb --enable-libopencore_amrwb --enable-libtesseract --enable-libvo_amrwbenc --enable-libsmbclient\n",
      "  libavutil      56. 70.100 / 56. 70.100\n",
      "  libavcodec     58.134.100 / 58.134.100\n",
      "  libavformat    58. 76.100 / 58. 76.100\n",
      "  libavdevice    58. 13.100 / 58. 13.100\n",
      "  libavfilter     7.110.100 /  7.110.100\n",
      "  libswscale      5.  9.100 /  5.  9.100\n",
      "  libswresample   3.  9.100 /  3.  9.100\n",
      "  libpostproc    55.  9.100 / 55.  9.100\n",
      "Input #0, mov,mp4,m4a,3gp,3g2,mj2, from '/home/arnautov/projects/mgu_hack/data/tmp6v8upsz8.mp4':\n",
      "  Metadata:\n",
      "    major_brand     : isom\n",
      "    minor_version   : 512\n",
      "    compatible_brands: isomiso2avc1mp41\n",
      "    encoder         : Lavf58.76.100\n",
      "  Duration: 00:00:21.60, start: 0.000000, bitrate: 4646 kb/s\n",
      "  Stream #0:0(und): Video: h264 (High) (avc1 / 0x31637661), yuv420p(tv, bt709), 720x1280 [SAR 1:1 DAR 9:16], 4641 kb/s, 60 fps, 60 tbr, 15360 tbn, 120 tbc (default)\n",
      "    Metadata:\n",
      "      handler_name    : ISO Media file produced by Google Inc.\n",
      "      vendor_id       : [0][0][0][0]\n",
      "Input #1, mov,mp4,m4a,3gp,3g2,mj2, from '../data/kostin.mp4':\n",
      "  Metadata:\n",
      "    major_brand     : isom\n",
      "    minor_version   : 512\n",
      "    compatible_brands: isomiso2avc1mp41\n",
      "    creation_time   : 2025-03-23T12:38:54.000000Z\n",
      "    encoder         : Blackmagic Design DaVinci Resolve\n",
      "  Duration: 00:00:21.60, start: 0.000000, bitrate: 8725 kb/s\n",
      "  Stream #1:0(und): Video: h264 (High) (avc1 / 0x31637661), yuv420p(tv, bt709), 1920x1080, 8528 kb/s, SAR 1:1 DAR 16:9, 30 fps, 30 tbr, 15360 tbn, 60 tbc (default)\n",
      "    Metadata:\n",
      "      creation_time   : 2025-03-23T12:38:54.000000Z\n",
      "      handler_name    : VideoHandler\n",
      "      vendor_id       : [0][0][0][0]\n",
      "      encoder         : H.264\n",
      "      timecode        : 01:00:00:00\n",
      "  Stream #1:1(und): Audio: aac (LC) (mp4a / 0x6134706D), 48000 Hz, stereo, fltp, 192 kb/s (default)\n",
      "    Metadata:\n",
      "      creation_time   : 2025-03-23T12:38:54.000000Z\n",
      "      handler_name    : SoundHandler\n",
      "      vendor_id       : [0][0][0][0]\n",
      "  Stream #1:2(eng): Data: none (tmcd / 0x64636D74), 0 kb/s (default)\n",
      "    Metadata:\n",
      "      creation_time   : 2025-03-23T12:38:54.000000Z\n",
      "      handler_name    : TimeCodeHandler\n",
      "      timecode        : 01:00:00:00\n",
      "Stream mapping:\n",
      "  Stream #0:0 (h264) -> scale\n",
      "  Stream #1:0 (h264) -> scale\n",
      "  overlay -> Stream #0:0 (libx264)\n",
      "  Stream #1:1 -> #0:1 (copy)\n",
      "Press [q] to stop, [?] for help\n",
      "[libx264 @ 0x562f29892940] using SAR=1/1\n",
      "[libx264 @ 0x562f29892940] using cpu capabilities: MMX2 SSE2Fast SSSE3 SSE4.2 AVX FMA3 BMI2 AVX2\n",
      "[libx264 @ 0x562f29892940] profile High, level 4.2, 4:2:0, 8-bit\n",
      "[libx264 @ 0x562f29892940] 264 - core 163 r3060 5db6aa6 - H.264/MPEG-4 AVC codec - Copyleft 2003-2021 - http://www.videolan.org/x264.html - options: cabac=1 ref=2 deblock=1:0:0 analyse=0x3:0x113 me=hex subme=6 psy=1 psy_rd=1.00:0.00 mixed_ref=1 me_range=16 chroma_me=1 trellis=1 8x8dct=1 cqm=0 deadzone=21,11 fast_pskip=1 chroma_qp_offset=-2 threads=18 lookahead_threads=3 sliced_threads=0 nr=0 decimate=1 interlaced=0 bluray_compat=0 constrained_intra=0 bframes=3 b_pyramid=2 b_adapt=1 b_bias=0 direct=1 weightb=1 open_gop=0 weightp=1 keyint=250 keyint_min=25 scenecut=40 intra_refresh=0 rc_lookahead=30 rc=crf mbtree=1 crf=23.0 qcomp=0.60 qpmin=0 qpmax=69 qpstep=4 ip_ratio=1.40 aq=1:1.00\n",
      "Output #0, mp4, to '/home/arnautov/projects/mgu_hack/data/tmppf2ywnjl.mp4':\n",
      "  Metadata:\n",
      "    major_brand     : isom\n",
      "    minor_version   : 512\n",
      "    compatible_brands: isomiso2avc1mp41\n",
      "    encoder         : Lavf58.76.100\n",
      "  Stream #0:0: Video: h264 (avc1 / 0x31637661), yuv420p(tv, bt709, progressive), 1080x1920 [SAR 1:1 DAR 9:16], q=2-31, 60 fps, 15360 tbn (default)\n",
      "    Metadata:\n",
      "      encoder         : Lavc58.134.100 libx264\n",
      "    Side data:\n",
      "      cpb: bitrate max/min/avg: 0/0/0 buffer size: 0 vbv_delay: N/A\n",
      "  Stream #0:1(und): Audio: aac (LC) (mp4a / 0x6134706D), 48000 Hz, stereo, fltp, 192 kb/s (default)\n",
      "    Metadata:\n",
      "      creation_time   : 2025-03-23T12:38:54.000000Z\n",
      "      handler_name    : SoundHandler\n",
      "      vendor_id       : [0][0][0][0]\n",
      "frame= 1296 fps= 17 q=-1.0 Lsize=   13454kB time=00:00:21.58 bitrate=5105.1kbits/s speed=0.285x    \n",
      "video:12912kB audio:507kB subtitle:0kB other streams:0kB global headers:0kB muxing overhead: 0.258560%\n",
      "[libx264 @ 0x562f29892940] frame I:6     Avg QP:21.87  size: 68652\n",
      "[libx264 @ 0x562f29892940] frame P:388   Avg QP:24.48  size: 15282\n",
      "[libx264 @ 0x562f29892940] frame B:902   Avg QP:26.31  size:  7627\n",
      "[libx264 @ 0x562f29892940] consecutive B-frames:  3.8%  7.3%  9.0% 79.9%\n",
      "[libx264 @ 0x562f29892940] mb I  I16..4: 23.3% 65.9% 10.8%\n",
      "[libx264 @ 0x562f29892940] mb P  I16..4: 13.8% 20.0%  0.1%  P16..4: 25.8%  3.7%  1.4%  0.0%  0.0%    skip:35.2%\n",
      "[libx264 @ 0x562f29892940] mb B  I16..4:  5.6%  5.5%  0.0%  B16..8: 18.6%  1.6%  0.0%  direct:10.1%  skip:58.6%  L0:49.5% L1:48.3% BI: 2.2%\n",
      "[libx264 @ 0x562f29892940] 8x8 transform intra:55.3% inter:92.9%\n",
      "[libx264 @ 0x562f29892940] coded y,uvDC,uvAC intra: 16.4% 46.2% 0.6% inter: 4.3% 16.4% 0.0%\n",
      "[libx264 @ 0x562f29892940] i16 v,h,dc,p: 38% 20%  6% 37%\n",
      "[libx264 @ 0x562f29892940] i8 v,h,dc,ddl,ddr,vr,hd,vl,hu: 42% 17% 21%  2%  3%  6%  3%  4%  2%\n",
      "[libx264 @ 0x562f29892940] i4 v,h,dc,ddl,ddr,vr,hd,vl,hu: 30% 26% 11%  6%  6%  6%  6%  5%  4%\n",
      "[libx264 @ 0x562f29892940] i8c dc,h,v,p: 41% 14% 28% 17%\n",
      "[libx264 @ 0x562f29892940] Weighted P-Frames: Y:0.3% UV:0.0%\n",
      "[libx264 @ 0x562f29892940] ref P L0: 74.0% 26.0%\n",
      "[libx264 @ 0x562f29892940] ref B L0: 83.8% 16.2%\n",
      "[libx264 @ 0x562f29892940] ref B L1: 95.6%  4.4%\n",
      "[libx264 @ 0x562f29892940] kb/s:4896.75\n",
      "/tmp/tmp8ytbefxv/main.c:5:10: fatal error: Python.h: No such file or directory\n",
      "    5 | #include <Python.h>\n",
      "      |          ^~~~~~~~~~\n",
      "compilation terminated.\n",
      "/home/arnautov/projects/mgu_hack/venv/lib/python3.11/site-packages/whisper/timing.py:42: UserWarning: Failed to launch Triton kernels, likely due to missing CUDA toolkit; falling back to a slower median kernel implementation...\n",
      "  warnings.warn(\n",
      "/tmp/tmpceg2ssyd/main.c:5:10: fatal error: Python.h: No such file or directory\n",
      "    5 | #include <Python.h>\n",
      "      |          ^~~~~~~~~~\n",
      "compilation terminated.\n",
      "/home/arnautov/projects/mgu_hack/venv/lib/python3.11/site-packages/whisper/timing.py:146: UserWarning: Failed to launch Triton kernels, likely due to missing CUDA toolkit; falling back to a slower DTW implementation...\n",
      "  warnings.warn(\n",
      "ffmpeg version 4.4.2-0ubuntu0.22.04.1 Copyright (c) 2000-2021 the FFmpeg developers\n",
      "  built with gcc 11 (Ubuntu 11.2.0-19ubuntu1)\n",
      "  configuration: --prefix=/usr --extra-version=0ubuntu0.22.04.1 --toolchain=hardened --libdir=/usr/lib/x86_64-linux-gnu --incdir=/usr/include/x86_64-linux-gnu --arch=amd64 --enable-gpl --disable-stripping --enable-gnutls --enable-ladspa --enable-libaom --enable-libass --enable-libbluray --enable-libbs2b --enable-libcaca --enable-libcdio --enable-libcodec2 --enable-libdav1d --enable-libflite --enable-libfontconfig --enable-libfreetype --enable-libfribidi --enable-libgme --enable-libgsm --enable-libjack --enable-libmp3lame --enable-libmysofa --enable-libopenjpeg --enable-libopenmpt --enable-libopus --enable-libpulse --enable-librabbitmq --enable-librubberband --enable-libshine --enable-libsnappy --enable-libsoxr --enable-libspeex --enable-libsrt --enable-libssh --enable-libtheora --enable-libtwolame --enable-libvidstab --enable-libvorbis --enable-libvpx --enable-libwebp --enable-libx265 --enable-libxml2 --enable-libxvid --enable-libzimg --enable-libzmq --enable-libzvbi --enable-lv2 --enable-omx --enable-openal --enable-opencl --enable-opengl --enable-sdl2 --enable-pocketsphinx --enable-librsvg --enable-libmfx --enable-libdc1394 --enable-libdrm --enable-libiec61883 --enable-chromaprint --enable-frei0r --enable-libx264 --enable-shared\n",
      "  WARNING: library configuration mismatch\n",
      "  avcodec     configuration: --prefix=/usr --extra-version=0ubuntu0.22.04.1 --toolchain=hardened --libdir=/usr/lib/x86_64-linux-gnu --incdir=/usr/include/x86_64-linux-gnu --arch=amd64 --enable-gpl --disable-stripping --enable-gnutls --enable-ladspa --enable-libaom --enable-libass --enable-libbluray --enable-libbs2b --enable-libcaca --enable-libcdio --enable-libcodec2 --enable-libdav1d --enable-libflite --enable-libfontconfig --enable-libfreetype --enable-libfribidi --enable-libgme --enable-libgsm --enable-libjack --enable-libmp3lame --enable-libmysofa --enable-libopenjpeg --enable-libopenmpt --enable-libopus --enable-libpulse --enable-librabbitmq --enable-librubberband --enable-libshine --enable-libsnappy --enable-libsoxr --enable-libspeex --enable-libsrt --enable-libssh --enable-libtheora --enable-libtwolame --enable-libvidstab --enable-libvorbis --enable-libvpx --enable-libwebp --enable-libx265 --enable-libxml2 --enable-libxvid --enable-libzimg --enable-libzmq --enable-libzvbi --enable-lv2 --enable-omx --enable-openal --enable-opencl --enable-opengl --enable-sdl2 --enable-pocketsphinx --enable-librsvg --enable-libmfx --enable-libdc1394 --enable-libdrm --enable-libiec61883 --enable-chromaprint --enable-frei0r --enable-libx264 --enable-shared --enable-version3 --disable-doc --disable-programs --enable-libaribb24 --enable-libopencore_amrnb --enable-libopencore_amrwb --enable-libtesseract --enable-libvo_amrwbenc --enable-libsmbclient\n",
      "  libavutil      56. 70.100 / 56. 70.100\n",
      "  libavcodec     58.134.100 / 58.134.100\n",
      "  libavformat    58. 76.100 / 58. 76.100\n",
      "  libavdevice    58. 13.100 / 58. 13.100\n",
      "  libavfilter     7.110.100 /  7.110.100\n",
      "  libswscale      5.  9.100 /  5.  9.100\n",
      "  libswresample   3.  9.100 /  3.  9.100\n",
      "  libpostproc    55.  9.100 / 55.  9.100\n",
      "Input #0, mov,mp4,m4a,3gp,3g2,mj2, from '/home/arnautov/projects/mgu_hack/data/tmppf2ywnjl.mp4':\n",
      "  Metadata:\n",
      "    major_brand     : isom\n",
      "    minor_version   : 512\n",
      "    compatible_brands: isomiso2avc1mp41\n",
      "    encoder         : Lavf58.76.100\n",
      "  Duration: 00:00:21.61, start: 0.000000, bitrate: 5100 kb/s\n",
      "  Stream #0:0(und): Video: h264 (High) (avc1 / 0x31637661), yuv420p(tv, bt709), 1080x1920 [SAR 1:1 DAR 9:16], 4897 kb/s, 60 fps, 60 tbr, 15360 tbn, 120 tbc (default)\n",
      "    Metadata:\n",
      "      handler_name    : VideoHandler\n",
      "      vendor_id       : [0][0][0][0]\n",
      "  Stream #0:1(und): Audio: aac (LC) (mp4a / 0x6134706D), 48000 Hz, stereo, fltp, 192 kb/s (default)\n",
      "    Metadata:\n",
      "      handler_name    : SoundHandler\n",
      "      vendor_id       : [0][0][0][0]\n",
      "Stream mapping:\n",
      "  Stream #0:0 -> #0:0 (h264 (native) -> h264 (libx264))\n",
      "  Stream #0:1 -> #0:1 (copy)\n",
      "Press [q] to stop, [?] for help\n",
      "[Parsed_subtitles_0 @ 0x55b0281ebf40] libass API version: 0x1502000\n",
      "[Parsed_subtitles_0 @ 0x55b0281ebf40] libass source: tarball: 0.15.2\n",
      "[Parsed_subtitles_0 @ 0x55b0281ebf40] Shaper: FriBidi 1.0.8 (SIMPLE) HarfBuzz-ng 2.7.4 (COMPLEX)\n",
      "[Parsed_subtitles_0 @ 0x55b0281ebf40] Using font provider fontconfig\n",
      "[libx264 @ 0x55b0276367c0] using SAR=1/1\n",
      "[libx264 @ 0x55b0276367c0] using cpu capabilities: MMX2 SSE2Fast SSSE3 SSE4.2 AVX FMA3 BMI2 AVX2\n",
      "[libx264 @ 0x55b0276367c0] profile High, level 4.2, 4:2:0, 8-bit\n",
      "[libx264 @ 0x55b0276367c0] 264 - core 163 r3060 5db6aa6 - H.264/MPEG-4 AVC codec - Copyleft 2003-2021 - http://www.videolan.org/x264.html - options: cabac=1 ref=2 deblock=1:0:0 analyse=0x3:0x113 me=hex subme=6 psy=1 psy_rd=1.00:0.00 mixed_ref=1 me_range=16 chroma_me=1 trellis=1 8x8dct=1 cqm=0 deadzone=21,11 fast_pskip=1 chroma_qp_offset=-2 threads=18 lookahead_threads=3 sliced_threads=0 nr=0 decimate=1 interlaced=0 bluray_compat=0 constrained_intra=0 bframes=3 b_pyramid=2 b_adapt=1 b_bias=0 direct=1 weightb=1 open_gop=0 weightp=1 keyint=250 keyint_min=25 scenecut=40 intra_refresh=0 rc_lookahead=30 rc=crf mbtree=1 crf=23.0 qcomp=0.60 qpmin=0 qpmax=69 qpstep=4 ip_ratio=1.40 aq=1:1.00\n",
      "Output #0, mp4, to '../data/short5.mp4':\n",
      "  Metadata:\n",
      "    major_brand     : isom\n",
      "    minor_version   : 512\n",
      "    compatible_brands: isomiso2avc1mp41\n",
      "    encoder         : Lavf58.76.100\n",
      "  Stream #0:0(und): Video: h264 (avc1 / 0x31637661), yuv420p(tv, bt709, progressive), 1080x1920 [SAR 1:1 DAR 9:16], q=2-31, 60 fps, 15360 tbn (default)\n",
      "    Metadata:\n",
      "      handler_name    : VideoHandler\n",
      "      vendor_id       : [0][0][0][0]\n",
      "      encoder         : Lavc58.134.100 libx264\n",
      "    Side data:\n",
      "      cpb: bitrate max/min/avg: 0/0/0 buffer size: 0 vbv_delay: N/A\n",
      "  Stream #0:1(und): Audio: aac (LC) (mp4a / 0x6134706D), 48000 Hz, stereo, fltp, 192 kb/s (default)\n",
      "    Metadata:\n",
      "      handler_name    : SoundHandler\n",
      "      vendor_id       : [0][0][0][0]\n",
      "[Parsed_subtitles_0 @ 0x55b0281ebf40] fontselect: (Roboto, 400, 0) -> /usr/share/fonts/truetype/dejavu/DejaVuSans.ttf, 0, DejaVuSans\n",
      "frame= 1296 fps= 25 q=-1.0 Lsize=   13736kB time=00:00:21.58 bitrate=5212.0kbits/s speed=0.42x    \n",
      "video:13194kB audio:507kB subtitle:0kB other streams:0kB global headers:0kB muxing overhead: 0.253361%\n",
      "[libx264 @ 0x55b0276367c0] frame I:6     Avg QP:21.67  size: 71859\n",
      "[libx264 @ 0x55b0276367c0] frame P:528   Avg QP:24.32  size: 14202\n",
      "[libx264 @ 0x55b0276367c0] frame B:762   Avg QP:26.27  size:  7323\n",
      "[libx264 @ 0x55b0276367c0] consecutive B-frames:  4.0% 50.0%  8.3% 37.7%\n",
      "[libx264 @ 0x55b0276367c0] mb I  I16..4: 22.1% 66.0% 11.9%\n",
      "[libx264 @ 0x55b0276367c0] mb P  I16..4: 11.2% 17.6%  0.2%  P16..4: 27.0%  3.1%  1.0%  0.0%  0.0%    skip:39.8%\n",
      "[libx264 @ 0x55b0276367c0] mb B  I16..4:  4.3%  5.9%  0.0%  B16..8: 18.2%  1.4%  0.0%  direct: 9.1%  skip:60.9%  L0:49.3% L1:48.6% BI: 2.1%\n",
      "[libx264 @ 0x55b0276367c0] 8x8 transform intra:59.9% inter:93.0%\n",
      "[libx264 @ 0x55b0276367c0] coded y,uvDC,uvAC intra: 16.7% 51.2% 0.9% inter: 4.0% 15.8% 0.0%\n",
      "[libx264 @ 0x55b0276367c0] i16 v,h,dc,p: 36% 22%  7% 34%\n",
      "[libx264 @ 0x55b0276367c0] i8 v,h,dc,ddl,ddr,vr,hd,vl,hu: 42% 17% 22%  2%  3%  5%  3%  4%  2%\n",
      "[libx264 @ 0x55b0276367c0] i4 v,h,dc,ddl,ddr,vr,hd,vl,hu: 37% 25% 14%  4%  4%  4%  4%  4%  3%\n",
      "[libx264 @ 0x55b0276367c0] i8c dc,h,v,p: 43% 15% 28% 13%\n",
      "[libx264 @ 0x55b0276367c0] Weighted P-Frames: Y:0.0% UV:0.0%\n",
      "[libx264 @ 0x55b0276367c0] ref P L0: 75.4% 24.6%\n",
      "[libx264 @ 0x55b0276367c0] ref B L0: 83.7% 16.3%\n",
      "[libx264 @ 0x55b0276367c0] ref B L1: 97.8%  2.2%\n",
      "[libx264 @ 0x55b0276367c0] kb/s:5003.53\n"
     ]
    }
   ],
   "source": [
    "from clip import make_shorts\n",
    "\n",
    "input_path = \"../data/kostin.mp4\"\n",
    "background_path = \"../data/subway.mp4\"\n",
    "output_path = \"../data/short5.mp4\"\n",
    "\n",
    "make_shorts(input_path=input_path, background_path=background_path, output_path=output_path)"
   ]
  }
 ],
 "metadata": {
  "kernelspec": {
   "display_name": ".venv",
   "language": "python",
   "name": "python3"
  },
  "language_info": {
   "codemirror_mode": {
    "name": "ipython",
    "version": 3
   },
   "file_extension": ".py",
   "mimetype": "text/x-python",
   "name": "python",
   "nbconvert_exporter": "python",
   "pygments_lexer": "ipython3",
   "version": "3.11.10"
  }
 },
 "nbformat": 4,
 "nbformat_minor": 5
}
